<mxfile host="app.diagrams.net" agent="Mozilla/5.0 (Macintosh; Intel Mac OS X 10_15_7) AppleWebKit/537.36 (KHTML, like Gecko) Chrome/131.0.0.0 Safari/537.36" version="26.0.11">
  <diagram id="C5RBs43oDa-KdzZeNtuy" name="Page-1">
    <mxGraphModel dx="1242" dy="740" grid="0" gridSize="10" guides="1" tooltips="1" connect="1" arrows="1" fold="1" page="1" pageScale="1" pageWidth="827" pageHeight="1169" math="0" shadow="0">
      <root>
        <mxCell id="WIyWlLk6GJQsqaUBKTNV-0" />
        <mxCell id="WIyWlLk6GJQsqaUBKTNV-1" parent="WIyWlLk6GJQsqaUBKTNV-0" />
        <mxCell id="XbjGTauby8Pg0xVq4k7X-6" value="" style="edgeStyle=orthogonalEdgeStyle;rounded=0;orthogonalLoop=1;jettySize=auto;html=1;" edge="1" parent="WIyWlLk6GJQsqaUBKTNV-1" source="XbjGTauby8Pg0xVq4k7X-0" target="XbjGTauby8Pg0xVq4k7X-1">
          <mxGeometry relative="1" as="geometry" />
        </mxCell>
        <mxCell id="XbjGTauby8Pg0xVq4k7X-0" value="Separate&amp;nbsp;&lt;div&gt;Rancher&amp;nbsp;&lt;/div&gt;&lt;div&gt;Start&lt;/div&gt;" style="strokeWidth=2;html=1;shape=mxgraph.flowchart.start_1;whiteSpace=wrap;fillColor=light-dark(#D4D4D4,var(--ge-dark-color, #121212));" vertex="1" parent="WIyWlLk6GJQsqaUBKTNV-1">
          <mxGeometry x="170" y="60" width="100" height="60" as="geometry" />
        </mxCell>
        <mxCell id="XbjGTauby8Pg0xVq4k7X-7" value="" style="edgeStyle=orthogonalEdgeStyle;rounded=0;orthogonalLoop=1;jettySize=auto;html=1;" edge="1" parent="WIyWlLk6GJQsqaUBKTNV-1" source="XbjGTauby8Pg0xVq4k7X-1" target="XbjGTauby8Pg0xVq4k7X-2">
          <mxGeometry relative="1" as="geometry" />
        </mxCell>
        <mxCell id="XbjGTauby8Pg0xVq4k7X-1" value="Backup local RKE cluster" style="rounded=1;whiteSpace=wrap;html=1;absoluteArcSize=1;arcSize=14;strokeWidth=2;" vertex="1" parent="WIyWlLk6GJQsqaUBKTNV-1">
          <mxGeometry x="150" y="170" width="140" height="50" as="geometry" />
        </mxCell>
        <mxCell id="XbjGTauby8Pg0xVq4k7X-8" value="" style="edgeStyle=orthogonalEdgeStyle;rounded=0;orthogonalLoop=1;jettySize=auto;html=1;" edge="1" parent="WIyWlLk6GJQsqaUBKTNV-1" source="XbjGTauby8Pg0xVq4k7X-2" target="XbjGTauby8Pg0xVq4k7X-3">
          <mxGeometry relative="1" as="geometry" />
        </mxCell>
        <mxCell id="XbjGTauby8Pg0xVq4k7X-2" value="non-prod RKE cluster status check" style="rounded=1;whiteSpace=wrap;html=1;absoluteArcSize=1;arcSize=14;strokeWidth=2;" vertex="1" parent="WIyWlLk6GJQsqaUBKTNV-1">
          <mxGeometry x="147.5" y="270" width="145" height="50" as="geometry" />
        </mxCell>
        <mxCell id="XbjGTauby8Pg0xVq4k7X-9" value="" style="edgeStyle=orthogonalEdgeStyle;rounded=0;orthogonalLoop=1;jettySize=auto;html=1;" edge="1" parent="WIyWlLk6GJQsqaUBKTNV-1" source="XbjGTauby8Pg0xVq4k7X-3" target="XbjGTauby8Pg0xVq4k7X-4">
          <mxGeometry relative="1" as="geometry" />
        </mxCell>
        <mxCell id="XbjGTauby8Pg0xVq4k7X-3" value="migrate non-prod RKE cluster system resources to the new non-prod Rancher" style="rounded=1;whiteSpace=wrap;html=1;absoluteArcSize=1;arcSize=14;strokeWidth=2;" vertex="1" parent="WIyWlLk6GJQsqaUBKTNV-1">
          <mxGeometry x="147.5" y="370" width="145" height="70" as="geometry" />
        </mxCell>
        <mxCell id="XbjGTauby8Pg0xVq4k7X-11" value="" style="edgeStyle=orthogonalEdgeStyle;rounded=0;orthogonalLoop=1;jettySize=auto;html=1;" edge="1" parent="WIyWlLk6GJQsqaUBKTNV-1" source="XbjGTauby8Pg0xVq4k7X-4" target="XbjGTauby8Pg0xVq4k7X-10">
          <mxGeometry relative="1" as="geometry" />
        </mxCell>
        <mxCell id="XbjGTauby8Pg0xVq4k7X-13" value="YES" style="edgeLabel;html=1;align=center;verticalAlign=middle;resizable=0;points=[];" vertex="1" connectable="0" parent="XbjGTauby8Pg0xVq4k7X-11">
          <mxGeometry x="-0.2" y="1" relative="1" as="geometry">
            <mxPoint as="offset" />
          </mxGeometry>
        </mxCell>
        <mxCell id="XbjGTauby8Pg0xVq4k7X-4" value="Success" style="strokeWidth=2;html=1;shape=mxgraph.flowchart.decision;whiteSpace=wrap;" vertex="1" parent="WIyWlLk6GJQsqaUBKTNV-1">
          <mxGeometry x="170" y="480" width="100" height="70" as="geometry" />
        </mxCell>
        <mxCell id="XbjGTauby8Pg0xVq4k7X-5" value="Separate&lt;div&gt;Rancher&lt;/div&gt;&lt;div&gt;Complete&lt;/div&gt;" style="strokeWidth=2;html=1;shape=mxgraph.flowchart.terminator;whiteSpace=wrap;fillColor=light-dark(#D4D4D4,var(--ge-dark-color, #121212));" vertex="1" parent="WIyWlLk6GJQsqaUBKTNV-1">
          <mxGeometry x="170" y="690" width="100" height="60" as="geometry" />
        </mxCell>
        <mxCell id="XbjGTauby8Pg0xVq4k7X-12" value="" style="edgeStyle=orthogonalEdgeStyle;rounded=0;orthogonalLoop=1;jettySize=auto;html=1;" edge="1" parent="WIyWlLk6GJQsqaUBKTNV-1" source="XbjGTauby8Pg0xVq4k7X-10" target="XbjGTauby8Pg0xVq4k7X-5">
          <mxGeometry relative="1" as="geometry" />
        </mxCell>
        <mxCell id="XbjGTauby8Pg0xVq4k7X-10" value="check from the new non-prod Rancher with the same system resources with non-prod RKE cluster" style="rounded=1;whiteSpace=wrap;html=1;absoluteArcSize=1;arcSize=14;strokeWidth=2;" vertex="1" parent="WIyWlLk6GJQsqaUBKTNV-1">
          <mxGeometry x="120" y="590" width="200" height="50" as="geometry" />
        </mxCell>
        <mxCell id="XbjGTauby8Pg0xVq4k7X-14" value="" style="edgeStyle=segmentEdgeStyle;endArrow=classic;html=1;curved=0;rounded=0;endSize=8;startSize=8;exitX=1;exitY=0.5;exitDx=0;exitDy=0;exitPerimeter=0;entryX=1;entryY=0.5;entryDx=0;entryDy=0;" edge="1" parent="WIyWlLk6GJQsqaUBKTNV-1" source="XbjGTauby8Pg0xVq4k7X-4" target="XbjGTauby8Pg0xVq4k7X-2">
          <mxGeometry width="50" height="50" relative="1" as="geometry">
            <mxPoint x="410" y="450" as="sourcePoint" />
            <mxPoint x="460" y="400" as="targetPoint" />
            <Array as="points">
              <mxPoint x="360" y="515" />
              <mxPoint x="360" y="295" />
            </Array>
          </mxGeometry>
        </mxCell>
        <mxCell id="XbjGTauby8Pg0xVq4k7X-15" value="NO" style="edgeLabel;html=1;align=center;verticalAlign=middle;resizable=0;points=[];" vertex="1" connectable="0" parent="XbjGTauby8Pg0xVq4k7X-14">
          <mxGeometry x="0.0787" y="-3" relative="1" as="geometry">
            <mxPoint as="offset" />
          </mxGeometry>
        </mxCell>
      </root>
    </mxGraphModel>
  </diagram>
</mxfile>
